<?xml version="1.0" encoding="UTF-8" standalone="no"?>
<!-- Created with Inkscape (http://www.inkscape.org/) -->

<svg
   xmlns:osb="http://www.openswatchbook.org/uri/2009/osb"
   xmlns:dc="http://purl.org/dc/elements/1.1/"
   xmlns:cc="http://creativecommons.org/ns#"
   xmlns:rdf="http://www.w3.org/1999/02/22-rdf-syntax-ns#"
   xmlns:svg="http://www.w3.org/2000/svg"
   xmlns="http://www.w3.org/2000/svg"
   xmlns:sodipodi="http://sodipodi.sourceforge.net/DTD/sodipodi-0.dtd"
   xmlns:inkscape="http://www.inkscape.org/namespaces/inkscape"
   width="16px"
   height="16px"
   viewBox="0 0 16 16"
   version="1.1"
   id="SVGRoot"
   inkscape:version="0.92.4 (unknown)"
   sodipodi:docname="com.jonathankang.Weibird-symbolic.svg">
  <sodipodi:namedview
     id="base"
     pagecolor="#ffffff"
     bordercolor="#666666"
     borderopacity="1.0"
     inkscape:pageopacity="0.0"
     inkscape:pageshadow="2"
     inkscape:zoom="45.254834"
     inkscape:cx="2.1542612"
     inkscape:cy="8.1073712"
     inkscape:document-units="px"
     inkscape:current-layer="layer1"
     showgrid="true"
     inkscape:window-width="2560"
     inkscape:window-height="1016"
     inkscape:window-x="0"
     inkscape:window-y="27"
     inkscape:window-maximized="1"
     inkscape:grid-bbox="true"
     inkscape:pagecheckerboard="true"
     inkscape:showpageshadow="false"
     showguides="false"
     inkscape:lockguides="true">
    <inkscape:grid
       type="xygrid"
       id="grid16" />
  </sodipodi:namedview>
  <defs
     id="defs3771">
    <linearGradient
       id="linearGradient5993"
       osb:paint="solid">
      <stop
         style="stop-color:#000000;stop-opacity:0;"
         offset="0"
         id="stop5991" />
    </linearGradient>
  </defs>
  <metadata
     id="metadata3774">
    <rdf:RDF>
      <cc:Work
         rdf:about="">
        <dc:format>image/svg+xml</dc:format>
        <dc:type
           rdf:resource="http://purl.org/dc/dcmitype/StillImage" />
        <dc:title />
      </cc:Work>
    </rdf:RDF>
  </metadata>
  <g
     id="layer1"
     inkscape:groupmode="layer"
     inkscape:label="Layer 1">
    <path
       inkscape:connector-curvature="0"
       id="path293"
       d="M 6.758655,15.374905 C 4.790973,15.219419 3.084529,14.762357 2.175791,14.14741 1.701033,13.826139 1.301332,13.291363 1.300156,12.97586 1.299887,12.89471 1.245896,12.81945 1.106551,12.705801 0.85257,12.498657 0.710431,12.248449 0.627782,11.863026 0.303261,10.349681 1.546781,6.9617898 3.478351,4.0968301 4.005429,3.3150549 4.575824,2.6173179 5.189039,2.004228 5.841219,1.352183 6.340646,0.9840229 6.866855,0.7673991 7.1323246,0.6581133 7.2141735,0.6446181 7.5753433,0.6505769 c 0.2245894,0.0037 0.4663722,0.00767 0.5372952,0.00881 0.070923,0.0012 0.2963532,-0.00979 0.5009566,-0.024284 0.4184777,-0.029655 0.6947909,0.029697 1.1103809,0.2385044 0.763804,0.3837649 1.789971,1.4114811 2.668277,2.6723057 0.08123,0.1166137 0.186383,0.2570761 0.233665,0.3121388 0.04728,0.055063 0.14552,0.2099302 0.218305,0.3441511 0.07279,0.1342209 0.234479,0.4173084 0.359317,0.629083 0.594782,1.0089798 1.601395,3.2372787 1.75873,3.8932289 0.02258,0.094122 0.100252,0.392531 0.172613,0.6631313 0.194942,0.7290129 0.267566,1.2023439 0.272408,1.7754839 0.0062,0.731921 -0.148004,1.196683 -0.473549,1.42741 -0.09321,0.06606 -0.131656,0.134594 -0.149407,0.266325 -0.0571,0.423746 -0.458375,0.982443 -0.944922,1.315633 -0.776992,0.532086 -2.15538,0.954053 -3.728036,1.141266 -0.690427,0.08219 -2.6370586,0.117687 -3.352722,0.06114 z M 9.0881718,12.499438 C 9.601074,11.29386 10.033517,10.273789 10.049157,10.23261 c 0.02681,-0.0706 -0.07989,-0.07487 -1.8720431,-0.07487 -1.7919869,0 -1.8988789,0.0043 -1.8724819,0.07487 0.164787,0.440706 1.8134359,4.45867 1.8294983,4.45872 0.011821,3.5e-5 0.4411395,-0.986316 0.9540415,-2.191892 z M 6.285835,8.4 C 7.024557,8.2306596 7.702427,7.5559571 7.8725629,6.8206872 c 0.057222,-0.2472948 0.057222,-0.7794903 0,-1.0267865 C 7.702427,5.0586322 7.024557,4.3839297 6.285835,4.2145894 c -0.248456,-0.056954 -0.783151,-0.056954 -1.031607,0 C 4.515506,4.3839297 3.837636,5.0586322 3.6675,5.7939007 c -0.05722,0.2472962 -0.05722,0.7794917 0,1.0267865 0.167744,0.7249318 0.848647,1.4097349 1.568876,1.5778638 0.232147,0.05419 0.815863,0.054997 1.049459,0.00144 z M 6.037498,7.7604831 C 5.394952,7.6301354 4.939014,7.0688063 4.939014,6.4080804 c 0,-0.7602536 0.601013,-1.3557471 1.368313,-1.3557471 0.545041,0 0.9876154,0.2764662 1.2313137,0.7691739 C 7.7876837,6.325021 7.7036857,6.9110829 7.3201643,7.3458486 7.04507,7.6576986 6.461208,7.8464389 6.037498,7.7604831 Z M 11.1,8.4 c 0.738722,-0.1693404 1.416592,-0.8440429 1.586728,-1.5793128 0.05722,-0.2472948 0.05722,-0.7794903 0,-1.0267865 C 12.516592,5.0586322 11.838722,4.3839297 11.1,4.2145894 c -0.248456,-0.056954 -0.783151,-0.056954 -1.031607,0 -0.738722,0.1693403 -1.4165922,0.8440428 -1.5867281,1.5793113 -0.057222,0.2472962 -0.057222,0.7794917 0,1.0267865 C 8.6494085,7.545619 9.330312,8.2304221 10.050541,8.398551 10.282688,8.452741 10.866404,8.453548 11.1,8.399991 Z M 9.777073,7.7604831 C 9.134527,7.6301354 8.678589,7.0688063 8.678589,6.4080804 c 0,-0.7602536 0.601013,-1.3557471 1.368312,-1.3557471 0.545042,0 0.987616,0.2764662 1.231314,0.7691739 0.249043,0.5035138 0.165045,1.0895757 -0.218476,1.5243414 -0.275095,0.31185 -0.858956,0.5005903 -1.282666,0.4146345 z"
       style="fill:#010101;fill-opacity:1;stroke-width:0.04288306" />
  </g>
</svg>
